<svg xmlns="http://www.w3.org/2000/svg" width="1920" height="1080" viewBox="0 0 1920 1080" version="1.1"><path d="M 1522.206 380.741 C 1525.895 380.932, 1532.195 380.934, 1536.206 380.743 C 1540.218 380.553, 1537.200 380.396, 1529.500 380.395 C 1521.800 380.393, 1518.518 380.549, 1522.206 380.741 M 1602.250 399.347 C 1600.160 400.033, 1599 401.065, 1599 402.238 C 1599 404.728, 1596.301 405.567, 1587.270 405.886 C 1584.563 405.982, 1583.714 406.640, 1582.020 409.960 C 1580.909 412.138, 1580 414.051, 1580 414.210 C 1579.999 414.640, 1633.435 413.874, 1633.885 413.438 C 1634.096 413.232, 1633.688 411.662, 1632.978 409.948 C 1631.486 406.346, 1628.641 405, 1622.517 405 C 1616.876 405, 1615 404.225, 1615 401.893 C 1615 400.686, 1614.297 400, 1613.059 400 C 1611.991 400, 1610.840 399.550, 1610.500 399 C 1609.749 397.785, 1606.611 397.917, 1602.250 399.347 M 1593.250 441.659 C 1592.013 441.923, 1591 442.558, 1591 443.070 C 1591 443.581, 1589.763 444.006, 1588.250 444.014 C 1584.469 444.032, 1580.627 445.146, 1581.781 445.889 C 1582.303 446.225, 1583.046 447.512, 1583.433 448.750 C 1583.983 450.513, 1583.742 451.003, 1582.317 451.015 C 1580.778 451.028, 1580.730 451.179, 1582 452 C 1582.861 452.556, 1593.761 452.976, 1607.582 452.985 L 1631.664 453 1632.789 449.335 C 1633.408 447.319, 1633.682 445.294, 1633.398 444.835 C 1633.114 444.376, 1630.696 444, 1628.024 444 C 1625.027 444, 1623.007 443.521, 1622.750 442.750 C 1622.449 441.844, 1618.644 441.456, 1608.917 441.340 C 1601.538 441.252, 1594.487 441.395, 1593.250 441.659 M 1612.500 466.945 C 1620.750 467.250, 1626.704 467.792, 1625.730 468.148 C 1624.457 468.614, 1624.402 468.755, 1625.533 468.648 C 1626.398 468.567, 1627.083 468.050, 1627.055 467.500 C 1627.024 466.883, 1621.349 466.479, 1612.253 466.445 L 1597.500 466.390 1612.500 466.945 M 948.872 475.750 C 947.640 477.321, 947.672 477.365, 949.184 476.182 C 950.391 475.238, 953.697 474.954, 960.842 475.182 C 966.327 475.357, 970.605 475.163, 970.349 474.750 C 970.092 474.337, 965.464 474, 960.063 474 C 951.902 474, 950.013 474.295, 948.872 475.750" stroke="none" fill="#d3784f" fill-rule="evenodd"/><path d="M 1602.750 373.080 C 1601.787 373.641, 1601 374.977, 1601 376.050 C 1601 377.122, 1600.325 378, 1599.500 378 C 1598.675 378, 1597.067 378.933, 1595.927 380.073 L 1593.854 382.146 1574.677 380.003 C 1547.461 376.961, 1524.427 376.503, 1492.500 378.369 C 1477.650 379.237, 1456.500 380.432, 1445.500 381.025 C 1411.687 382.847, 1411 382.925, 1411 384.960 C 1411 387.355, 1414.652 388, 1428.207 388 C 1434.234 388, 1459.040 389.162, 1483.332 390.582 C 1530.575 393.344, 1549.164 393.316, 1575.845 390.439 C 1593.463 388.539, 1594.729 388.571, 1595.480 390.937 C 1595.818 392.002, 1597.081 393.014, 1598.287 393.187 C 1601.357 393.625, 1601.767 396.753, 1598.808 397.173 C 1597.328 397.383, 1596.388 398.284, 1596.189 399.686 C 1595.923 401.551, 1595.044 401.963, 1590.189 402.497 C 1587.060 402.841, 1583.849 403.209, 1583.054 403.315 C 1582.259 403.420, 1580.684 405.080, 1579.554 407.003 C 1577.741 410.090, 1577.461 412.512, 1577.169 427.652 L 1576.838 444.803 1572.169 445.976 C 1569.601 446.622, 1566.150 447.728, 1564.500 448.434 C 1562.850 449.141, 1560.263 450.223, 1558.750 450.838 C 1555.747 452.060, 1555.386 453.559, 1557.161 457.453 C 1558.459 460.303, 1558.803 460.405, 1562.435 459.025 C 1564.966 458.062, 1565 458.112, 1565 462.825 C 1565 465.451, 1565.540 468.140, 1566.199 468.799 C 1567.131 469.731, 1460.291 469.992, 1086.449 469.973 C 821.927 469.959, 604.938 469.960, 604.250 469.974 C 603.420 469.991, 603 471.681, 603 475 C 603 479.590, 603.194 480, 605.364 480 C 606.981 480, 608.577 481.225, 610.413 483.875 C 611.890 486.006, 616.564 490.249, 620.799 493.305 C 625.035 496.360, 630.075 500.506, 632 502.517 C 633.925 504.528, 636.850 507.147, 638.500 508.337 L 641.500 510.500 774.843 511 L 908.186 511.500 909.429 515.115 C 911.334 520.657, 914.671 524.723, 919.766 527.709 C 923.684 530.005, 925.829 530.488, 933.629 530.829 L 942.857 531.232 942.857 536.548 C 942.857 545.072, 947.230 551.100, 955.111 553.440 C 963.075 555.805, 969.829 553.237, 974.598 546.032 C 976.771 542.748, 977.135 541.210, 976.846 536.555 L 976.500 530.997 984.500 530.989 C 990.782 530.982, 993.574 530.478, 997.500 528.642 C 1004.038 525.584, 1008.856 520.533, 1010.274 515.250 L 1011.415 511 1305.803 511 L 1600.191 511 1603.346 508.836 C 1605.081 507.646, 1608.975 504.570, 1612 501.999 C 1615.025 499.429, 1620.734 495.180, 1624.686 492.558 C 1628.639 489.936, 1633.088 486.038, 1634.572 483.896 C 1636.646 480.903, 1637.936 480, 1640.136 480 C 1642.488 480, 1643 479.573, 1643 477.612 L 1643 475.224 1666.250 474.634 C 1679.037 474.310, 1712.225 473.565, 1740 472.979 C 1808.098 471.541, 1849.642 469.564, 1857.750 467.374 C 1859.761 466.831, 1860 466.139, 1860 460.859 C 1860 455.537, 1859.761 454.860, 1857.592 454.035 C 1854.362 452.807, 1828.172 451.152, 1797 450.206 C 1765.790 449.258, 1753 449.618, 1753 451.443 C 1753 452.909, 1739.139 453.606, 1692 454.511 C 1676.875 454.802, 1659.924 455.296, 1654.331 455.610 C 1644.240 456.177, 1644.160 456.164, 1643.831 453.841 C 1643.566 451.966, 1642.803 451.441, 1640 451.206 L 1636.500 450.911 1636.824 431.060 C 1637.123 412.733, 1636.992 410.905, 1635.122 407.239 C 1632.925 402.933, 1630.654 402, 1622.375 402 C 1618.375 402, 1618 401.786, 1618 399.500 C 1618 397.481, 1617.505 397, 1615.427 397 C 1611.754 397, 1612.544 393.612, 1616.318 393.178 C 1617.858 393.001, 1619.365 392.213, 1619.666 391.428 C 1620.368 389.599, 1624.847 389.622, 1637 391.518 C 1642.225 392.334, 1654.825 393.477, 1665 394.060 C 1681.908 395.027, 1687.391 394.855, 1728.719 392.059 C 1753.590 390.377, 1778.790 388.974, 1784.719 388.942 C 1799.095 388.866, 1803.415 388.065, 1803.797 385.406 C 1804.077 383.464, 1803.337 383.265, 1791.599 382.127 C 1764.770 379.526, 1743.334 377.929, 1715.500 376.457 C 1682.858 374.731, 1668.646 375.287, 1638.104 379.485 C 1620.819 381.861, 1620.595 381.866, 1619.249 379.945 C 1618.500 378.875, 1616.787 378, 1615.443 378 C 1613.533 378, 1613 377.478, 1613 375.607 C 1613 372.131, 1606.943 370.638, 1602.750 373.080 M 1602.130 380.459 C 1600.276 381.130, 1598.341 382.426, 1597.830 383.339 C 1597.319 384.253, 1595.910 385.029, 1594.700 385.063 L 1592.500 385.127 1594.665 386 C 1595.855 386.480, 1597.205 387.510, 1597.665 388.290 C 1599.800 391.914, 1617 392.095, 1617 388.493 C 1617 386.674, 1619.571 385.923, 1623.829 386.496 C 1625.848 386.769, 1632.450 387.667, 1638.500 388.494 C 1664.251 392.012, 1680.063 392.093, 1725.926 388.940 C 1749.342 387.331, 1772.100 385.997, 1776.500 385.977 C 1791.645 385.906, 1781.781 384.229, 1752.500 381.898 C 1730.675 380.160, 1715.583 379.578, 1691.500 379.548 C 1661.588 379.510, 1658.242 379.690, 1640.210 382.309 C 1620.938 385.107, 1617 385.128, 1617 382.433 C 1617 381.514, 1615.945 381, 1614.059 381 C 1612.441 381, 1610.840 380.550, 1610.500 380 C 1609.711 378.724, 1606.425 378.904, 1602.130 380.459 M 1502.500 380.987 C 1456.455 383.738, 1448 384.333, 1448.459 384.793 C 1449.645 385.979, 1528.253 389.848, 1542 389.397 C 1557.057 388.903, 1590.360 386.027, 1589.618 385.285 C 1589.385 385.051, 1580.938 383.980, 1570.847 382.904 C 1549.129 380.588, 1521.940 379.826, 1502.500 380.987 M 1602.250 399.347 C 1600.160 400.033, 1599 401.065, 1599 402.238 C 1599 404.728, 1596.301 405.567, 1587.270 405.886 C 1584.563 405.982, 1583.714 406.640, 1582.020 409.960 C 1580.909 412.138, 1580 414.051, 1580 414.210 C 1579.999 414.640, 1633.435 413.874, 1633.885 413.438 C 1634.096 413.232, 1633.688 411.662, 1632.978 409.948 C 1631.486 406.346, 1628.641 405, 1622.517 405 C 1616.876 405, 1615 404.225, 1615 401.893 C 1615 400.686, 1614.297 400, 1613.059 400 C 1611.991 400, 1610.840 399.550, 1610.500 399 C 1609.749 397.785, 1606.611 397.917, 1602.250 399.347 M 1593.250 441.659 C 1592.013 441.923, 1591 442.558, 1591 443.070 C 1591 443.581, 1589.763 444.006, 1588.250 444.014 C 1584.469 444.032, 1580.627 445.146, 1581.781 445.889 C 1582.303 446.225, 1583.046 447.512, 1583.433 448.750 C 1583.983 450.513, 1583.742 451.003, 1582.317 451.015 C 1580.840 451.028, 1580.768 451.200, 1581.936 451.939 C 1584.477 453.547, 1581.300 456, 1576.678 456 C 1574.435 456, 1573.027 456.337, 1573.550 456.750 C 1574.072 457.163, 1589.463 457.376, 1607.750 457.224 C 1635.633 456.992, 1641 456.719, 1641 455.531 C 1641 454.580, 1639.604 454.014, 1636.750 453.807 C 1632.245 453.482, 1632.199 453.394, 1633.134 447 C 1633.478 444.652, 1633.197 444.481, 1628.519 444.186 C 1625.780 444.013, 1623.209 443.338, 1622.807 442.686 C 1622.064 441.483, 1597.996 440.647, 1593.250 441.659 M 1597.638 467.500 C 1597.114 468.867, 1598.825 469.019, 1612.024 468.776 C 1631.697 468.414, 1632.121 466.598, 1612.620 466.224 C 1600.371 465.989, 1598.146 466.178, 1597.638 467.500 M 1573 472.002 C 1572.034 472.628, 1399.553 472.956, 1088.500 472.924 C 651.632 472.878, 605.469 473.022, 605.177 474.434 C 604.992 475.331, 605.842 476.372, 607.177 476.883 C 608.455 477.371, 611.008 479.653, 612.852 481.954 C 614.696 484.254, 619.421 488.528, 623.352 491.450 C 627.283 494.372, 631.625 498.003, 633 499.517 C 634.375 501.032, 637.255 503.560, 639.400 505.136 L 643.300 508 776.481 508 L 909.662 508 910.730 510.250 C 911.318 511.488, 912.311 513.874, 912.939 515.553 C 913.566 517.232, 915.201 519.816, 916.572 521.294 C 921.008 526.078, 924.730 527.357, 935.500 527.795 C 941 528.019, 945.903 528.582, 946.395 529.046 C 946.920 529.541, 946.767 531.760, 946.027 534.405 C 944.838 538.651, 944.920 539.188, 947.420 543.454 C 951.708 550.770, 959.617 553.318, 966.689 549.661 C 972.526 546.642, 974.758 540.944, 973.803 531.500 L 973.500 528.500 984.043 527.959 C 992.640 527.519, 995.263 527.001, 998.251 525.154 C 1003.119 522.145, 1006.672 517.788, 1007.531 513.774 C 1007.916 511.973, 1008.679 509.943, 1009.227 509.263 C 1010.014 508.286, 1072.038 508.026, 1304.808 508.025 L 1599.394 508.024 1606.947 502.010 C 1611.101 498.703, 1617.666 493.799, 1621.536 491.112 C 1625.406 488.425, 1630.274 484.151, 1632.353 481.614 C 1634.476 479.024, 1636.982 477, 1638.067 477 C 1639.556 477, 1640 476.298, 1640 473.946 L 1640 470.892 1631.750 471.364 C 1600.600 473.144, 1596.264 473.236, 1595.584 472.136 C 1594.708 470.719, 1575.160 470.603, 1573 472.002 M 637 476.460 C 624.905 478.225, 624 478.610, 624 481.982 C 624 484.234, 625.022 485.580, 628.884 488.415 C 631.570 490.387, 634.505 492, 635.406 492 C 639.069 492, 649 480.713, 649 476.550 C 649 474.778, 648.544 474.775, 637 476.460 M 949.278 476.250 C 948.746 476.938, 948.030 478.288, 947.687 479.250 C 947.344 480.212, 946.412 481, 945.617 481 C 943.645 481, 928.724 486.750, 926.527 488.357 C 922.137 491.567, 927.358 495.309, 942.626 499.896 C 946.779 501.144, 948.423 502.111, 948.237 503.197 C 947.710 506.269, 950.523 507.083, 960.648 506.787 C 970.321 506.505, 970.505 506.455, 970.800 504 C 971.067 501.773, 972.154 501.175, 980.756 498.525 C 990.943 495.386, 995.744 492.382, 994.744 489.774 C 994.173 488.287, 980.375 482.443, 974.750 481.306 C 972.722 480.896, 972 480.155, 972 478.482 C 972 477.235, 971.288 475.941, 970.418 475.607 C 967.333 474.423, 950.290 474.942, 949.278 476.250 M 1273.703 475.631 C 1273.316 476.017, 1273 477.070, 1273 477.970 C 1273 479.123, 1270.857 480.288, 1265.750 481.913 C 1261.763 483.182, 1256.351 485.131, 1253.725 486.244 C 1249.671 487.962, 1249.046 488.587, 1249.587 490.384 C 1249.938 491.548, 1250.568 492.871, 1250.988 493.326 C 1251.894 494.306, 1269.945 500.966, 1271.750 500.986 C 1272.438 500.994, 1273 501.845, 1273 502.878 C 1273 506.181, 1275.403 507.108, 1283.158 506.796 C 1289.663 506.534, 1290.612 506.244, 1291.486 504.254 C 1292.208 502.607, 1294.609 501.306, 1300.486 499.379 C 1310.548 496.079, 1316 493.118, 1316 490.952 C 1316 489.132, 1307.587 484.916, 1298.014 481.940 C 1293.772 480.621, 1292.401 479.697, 1291.971 477.867 C 1291.447 475.637, 1290.924 475.484, 1282.910 475.214 C 1278.232 475.057, 1274.089 475.244, 1273.703 475.631 M 671.750 476.674 C 669.228 477.355, 669.553 481.382, 672.542 486.481 C 675.766 491.982, 677.353 492.552, 681.863 489.823 C 688.709 485.682, 697.102 478.806, 696.719 477.652 C 696.334 476.492, 675.455 475.674, 671.750 476.674 M 1548.667 476.667 C 1547.309 478.024, 1548.166 478.984, 1555.554 484.379 C 1560.003 487.628, 1563.720 489.661, 1564.597 489.325 C 1566.407 488.630, 1569.652 482.243, 1569.564 479.548 C 1569.525 478.348, 1568.536 477.326, 1567 476.897 C 1563.733 475.985, 1549.527 475.806, 1548.667 476.667 M 1596 476.870 C 1596 479.561, 1605.127 491, 1607.275 491 C 1608.643 491, 1615.003 485.863, 1616.044 483.917 C 1618.303 479.697, 1614.318 477.415, 1602.824 476.347 C 1597.958 475.895, 1596 476.045, 1596 476.870 M 727 478.065 C 715.511 479.578, 713.773 480.738, 716.124 485.322 C 717.994 488.971, 723.281 494, 725.247 494 C 726.266 494, 730.046 491.126, 733.646 487.614 C 743.417 478.080, 742.030 476.086, 727 478.065 M 773 477.984 C 766.675 478.354, 760.448 479.221, 759.162 479.910 C 755.862 481.680, 756.961 485.067, 762.800 491.118 C 769.889 498.465, 771.882 497.965, 784.750 485.609 C 787.638 482.837, 790 480.039, 790 479.391 C 790 478.136, 787.601 476.898, 785.668 477.156 C 785.026 477.242, 779.325 477.615, 773 477.984 M 1455.127 478.273 C 1454.445 478.955, 1454.933 480.356, 1456.626 482.576 C 1460.183 487.240, 1469.872 495, 1472.137 495 C 1473.187 495, 1476.285 492.652, 1479.022 489.781 C 1486.924 481.497, 1485.588 479.054, 1472.787 478.378 C 1468.229 478.138, 1462.619 477.788, 1460.319 477.601 C 1458.020 477.414, 1455.683 477.717, 1455.127 478.273 M 1504.349 478.534 C 1503.597 480.493, 1514.506 492, 1517.115 492 C 1519.298 492, 1525 485.492, 1525 483 C 1525 480.534, 1522.753 479.358, 1516.500 478.555 C 1513.750 478.201, 1510.032 477.685, 1508.237 477.408 C 1505.823 477.036, 1504.811 477.328, 1504.349 478.534 M 819 478.725 C 809.051 479.368, 808.969 483.368, 818.743 491.250 C 826.970 497.885, 829.604 499.317, 832.324 498.632 C 834.501 498.083, 851.531 485.476, 853.820 482.717 C 854.488 481.912, 854.754 480.521, 854.410 479.627 C 853.868 478.215, 851.852 478.024, 839.143 478.185 C 831.089 478.287, 822.025 478.530, 819 478.725 M 950.820 480.121 C 950.560 481.844, 948.364 482.997, 939.102 486.276 C 925.827 490.974, 925.852 491.251, 939.942 495.708 C 949.756 498.812, 951 499.534, 951 502.122 C 951 503.811, 951.850 504, 959.445 504 C 967.496 504, 967.952 503.881, 969.195 501.444 C 970.218 499.440, 972.633 498.152, 980.378 495.483 C 985.810 493.610, 990.522 491.811, 990.849 491.485 C 991.742 490.592, 989.315 489.363, 981.017 486.506 C 969.731 482.622, 969 482.227, 969 480.021 C 969 478.144, 968.365 478, 960.070 478 C 951.737 478, 951.118 478.142, 950.820 480.121 M 1065.400 479.399 C 1064.551 481.612, 1066.289 483.410, 1077.616 492.037 C 1089.053 500.747, 1089.746 500.744, 1100.222 491.953 C 1109.209 484.410, 1109.840 483.395, 1107.187 480.742 C 1105.315 478.870, 1103.570 478.666, 1085.597 478.215 C 1067.952 477.772, 1065.980 477.888, 1065.400 479.399 M 1140.328 478.717 C 1135.795 479.141, 1133.625 480.860, 1134.557 483.288 C 1135.052 484.577, 1139.315 488.509, 1149.112 496.711 C 1153.114 500.061, 1156.061 499.112, 1166.500 491.110 C 1174.404 485.052, 1176.500 482.927, 1176.500 480.973 L 1176.500 478.500 1160.500 478.413 C 1151.700 478.365, 1142.623 478.502, 1140.328 478.717 M 1275.487 480.112 C 1274.787 481.608, 1272.025 483.013, 1266 484.933 C 1261.325 486.424, 1256.406 488.233, 1255.070 488.953 C 1252.737 490.211, 1252.715 490.318, 1254.511 491.632 C 1255.541 492.385, 1260.235 494.219, 1264.942 495.708 C 1274.756 498.812, 1276 499.534, 1276 502.122 C 1276 503.759, 1276.803 504, 1282.263 504 C 1287.799 504, 1288.640 503.739, 1289.513 501.750 C 1290.224 500.130, 1292.460 498.876, 1297.500 497.271 C 1305.663 494.671, 1312 491.961, 1312 491.070 C 1312 490.725, 1308.063 488.957, 1303.250 487.140 C 1298.438 485.324, 1293.443 483.413, 1292.150 482.894 C 1290.858 482.376, 1289.568 481.063, 1289.283 479.976 C 1288.840 478.278, 1287.901 478, 1282.620 478 C 1277.344 478, 1276.335 478.299, 1275.487 480.112 M 1389.461 479.063 C 1388.815 480.108, 1391.306 483.736, 1393.740 485.294 C 1394.422 485.731, 1398.353 488.768, 1402.475 492.044 C 1406.597 495.320, 1410.820 498, 1411.859 498 C 1414.246 498, 1427.382 487.305, 1428.933 484.098 C 1429.650 482.617, 1429.739 481.339, 1429.166 480.766 C 1426.749 478.349, 1390.854 476.810, 1389.461 479.063 M 1577.219 478.728 C 1575.423 479.372, 1570.750 488.906, 1571.400 490.601 C 1572.433 493.292, 1574.704 491.960, 1577.341 487.115 C 1580.847 480.673, 1580.800 477.446, 1577.219 478.728 M 632.195 480.204 C 629.103 480.767, 627.044 481.632, 627.259 482.276 C 627.462 482.885, 629.257 484.701, 631.248 486.313 L 634.867 489.242 639.345 485.573 C 645.494 480.535, 645.949 478.968, 641.219 479.119 C 639.173 479.184, 635.113 479.672, 632.195 480.204 M 674.160 479.880 C 673.076 480.567, 673.224 481.518, 674.938 484.878 L 677.055 489.028 680.993 486.764 C 683.159 485.519, 686.409 483.275, 688.216 481.777 L 691.500 479.054 683.500 479.042 C 679.100 479.036, 674.897 479.413, 674.160 479.880 M 888.585 480.044 C 881.275 482.230, 883.085 486.100, 895.252 494.301 C 903.186 499.648, 906 501.037, 908.421 500.801 L 911.500 500.500 911.786 490.739 C 912.071 481.036, 912.057 480.972, 909.471 479.989 C 906.329 478.795, 892.643 478.830, 888.585 480.044 M 1011 479.830 C 1008.667 480.535, 1008.447 481.174, 1007.708 489.389 C 1006.822 499.224, 1007.476 501, 1011.983 501 C 1013.489 501, 1016.471 499.796, 1018.610 498.323 C 1020.750 496.851, 1025.114 493.894, 1028.309 491.752 C 1035.100 487.199, 1036.671 484.396, 1033.991 481.615 C 1032.521 480.090, 1030.393 479.668, 1022.837 479.402 C 1017.702 479.221, 1012.375 479.414, 1011 479.830 M 1210.250 480.496 C 1206.013 483.542, 1207.744 485.962, 1220.023 494.159 C 1232.309 502.361, 1232.308 502.361, 1233.407 491.693 C 1234.607 480.050, 1234.196 479.610, 1221.716 479.190 C 1214.458 478.945, 1212.022 479.223, 1210.250 480.496 M 1333.082 480.401 C 1332.338 481.298, 1332.024 484.987, 1332.210 490.651 C 1332.479 498.858, 1332.657 499.522, 1334.666 499.809 C 1337.496 500.212, 1356.006 487.504, 1355.985 485.173 C 1355.976 484.253, 1355.592 482.905, 1355.131 482.178 C 1353.208 479.145, 1335.321 477.703, 1333.082 480.401 M 1554 479.330 C 1554 479.806, 1562.718 486, 1563.388 486 C 1563.696 486, 1564.624 484.694, 1565.450 483.097 C 1566.794 480.498, 1566.788 480.133, 1565.393 479.597 C 1563.778 478.978, 1554 478.748, 1554 479.330 M 1588.327 480.589 C 1587.577 482.545, 1593.275 488.566, 1594.917 487.551 C 1595.704 487.065, 1595.377 485.663, 1593.839 482.927 C 1591.529 478.816, 1589.361 477.897, 1588.327 480.589 M 1600 479.409 C 1600 479.731, 1601.618 481.785, 1603.596 483.975 L 1607.192 487.955 1610.596 485.359 C 1615.785 481.401, 1615.535 481.169, 1604.250 479.466 C 1601.912 479.113, 1600 479.087, 1600 479.409 M 727 481.190 C 722.875 481.702, 719.183 482.434, 718.795 482.816 C 718.407 483.198, 719.617 485.308, 721.485 487.505 L 724.880 491.500 730.679 485.750 C 733.869 482.587, 736.033 480.058, 735.489 480.129 C 734.945 480.200, 731.125 480.677, 727 481.190 M 654.216 484.531 C 652.960 486.480, 650.935 488.477, 649.716 488.968 C 646.385 490.310, 641 495.852, 641 497.937 C 641 502.345, 656.770 505.722, 662.799 502.604 C 667.661 500.090, 667.771 497.287, 663.339 488.827 C 661.228 484.797, 658.825 481.385, 658 481.244 C 657.175 481.102, 655.472 482.582, 654.216 484.531 M 762.750 481.716 C 761.237 481.945, 760.009 482.440, 760.020 482.816 C 760.030 483.192, 762.286 485.875, 765.032 488.778 C 770.791 494.867, 770.358 494.933, 779.500 486.568 L 785.500 481.078 775.500 481.189 C 770 481.250, 764.263 481.487, 762.750 481.716 M 819 481.913 L 813.500 482.500 816.500 485.169 C 824.919 492.660, 829.263 496, 830.586 496 C 831.891 496, 851 482.313, 851 481.378 C 851 480.810, 825.312 481.239, 819 481.913 M 1069 481.378 C 1069 482.325, 1088.117 496, 1089.442 496 C 1090.262 496, 1093.124 494.087, 1095.802 491.750 C 1098.479 489.413, 1101.982 486.376, 1103.585 485.002 L 1106.500 482.505 1101.500 481.840 C 1096.162 481.130, 1069 480.744, 1069 481.378 M 1141.146 481.900 L 1136.792 482.500 1144.906 489.250 C 1149.369 492.962, 1153.458 496, 1153.992 496 C 1154.948 496, 1174 482.059, 1174 481.359 C 1174 480.781, 1145.917 481.243, 1141.146 481.900 M 1401.437 487.482 C 1406.219 491.046, 1410.569 494.233, 1411.103 494.564 C 1412.121 495.193, 1426 484.513, 1426 483.102 C 1426 482.018, 1414.815 481.016, 1402.622 481.007 L 1392.744 481 1401.437 487.482 M 1465.297 486.454 C 1468.485 489.504, 1471.429 492, 1471.838 492 C 1473.246 492, 1481.375 483.042, 1480.638 482.304 C 1480.232 481.899, 1475.310 481.419, 1469.700 481.238 L 1459.500 480.909 1465.297 486.454 M 1512.818 485.250 L 1517.106 489.500 1519.553 486.694 C 1520.899 485.151, 1522 483.525, 1522 483.080 C 1522 482.298, 1514.901 481, 1510.625 481 C 1508.841 481, 1509.168 481.633, 1512.818 485.250 M 864.461 483.285 C 858.916 486.588, 847.154 496.303, 846.728 497.931 C 845.633 502.120, 846.953 502.426, 867.953 502.839 C 888.739 503.248, 891.012 502.882, 890.991 499.128 C 890.986 498.225, 887.533 495.145, 883.241 492.214 C 878.983 489.307, 873.971 485.819, 872.102 484.464 C 868.284 481.696, 867.367 481.554, 864.461 483.285 M 890.191 482.850 C 888.921 483.207, 887.875 483.950, 887.867 484.500 C 887.847 485.754, 905.778 498, 907.634 498 C 909.769 498, 909.566 483.431, 907.418 482.607 C 905.388 481.828, 893.210 482, 890.191 482.850 M 1012.364 482.765 C 1011.739 483.169, 1011.064 486.642, 1010.864 490.481 C 1010.566 496.204, 1010.782 497.518, 1012.062 497.768 C 1013.850 498.119, 1032.157 486.017, 1032.133 484.500 C 1032.125 483.950, 1031.079 483.207, 1029.809 482.850 C 1026.577 481.939, 1013.737 481.877, 1012.364 482.765 M 1050 482.702 C 1049.175 483.001, 1047.150 484.493, 1045.500 486.018 C 1043.850 487.543, 1040.025 490.359, 1037 492.275 C 1033.975 494.192, 1030.684 496.669, 1029.687 497.779 C 1027.927 499.738, 1027.941 499.845, 1030.159 501.399 C 1032.062 502.732, 1035.651 503, 1051.568 503 C 1068.923 503, 1070.845 502.829, 1072.369 501.145 C 1073.314 500.101, 1073.772 498.570, 1073.417 497.644 C 1072.675 495.711, 1054.331 481.963, 1052.648 482.079 C 1052.017 482.122, 1050.825 482.403, 1050 482.702 M 1211.667 482.667 C 1210.364 483.970, 1211.054 484.842, 1215.408 487.393 C 1217.832 488.814, 1221.927 491.588, 1224.506 493.557 C 1227.086 495.526, 1229.333 496.994, 1229.500 496.818 C 1229.666 496.643, 1230.118 493.527, 1230.503 489.893 C 1231.176 483.534, 1231.114 483.263, 1228.851 482.657 C 1225.713 481.817, 1212.509 481.824, 1211.667 482.667 M 1335.667 482.667 C 1334.693 483.640, 1334.849 497.227, 1335.829 496.833 C 1338.623 495.710, 1352.938 485.303, 1352.966 484.375 C 1352.985 483.756, 1351.594 482.969, 1349.875 482.625 C 1345.739 481.798, 1336.508 481.825, 1335.667 482.667 M 1178.679 489.329 C 1169.565 496.523, 1168.518 497.958, 1170.450 500.603 C 1171.713 502.333, 1173.544 502.527, 1191.247 502.808 C 1207.856 503.071, 1210.846 502.891, 1211.952 501.558 C 1213.664 499.495, 1212.228 497.766, 1205 493.179 C 1201.975 491.260, 1197.811 488.184, 1195.747 486.345 C 1190.382 481.563, 1187.987 481.981, 1178.679 489.329 M 1370.960 485.543 C 1369.645 486.942, 1365.514 489.972, 1361.778 492.277 C 1354.790 496.590, 1352.973 499.058, 1354.994 501.493 C 1355.902 502.587, 1359.922 502.903, 1373.502 502.949 C 1388.163 502.998, 1391.100 502.757, 1392.459 501.398 C 1393.485 500.372, 1393.830 499.013, 1393.410 497.645 C 1393.048 496.465, 1392.695 495.472, 1392.626 495.439 C 1392.557 495.405, 1388.800 492.592, 1384.277 489.189 C 1379.754 485.785, 1375.445 483, 1374.701 483 C 1373.957 483, 1372.274 484.144, 1370.960 485.543 M 698.340 488.658 C 695.128 491.148, 692.143 493.812, 691.708 494.579 C 690.699 496.354, 692.465 499.713, 694.749 500.363 C 697.648 501.189, 707.233 502.945, 711.500 503.431 C 716.454 503.996, 719.484 502.100, 718.514 499.044 C 717.630 496.259, 708.339 485.686, 706.012 484.816 C 704.714 484.331, 702.479 485.450, 698.340 488.658 M 790.702 488.662 C 783.196 495.070, 781.604 497.392, 782.968 499.940 C 784.253 502.341, 786.599 502.733, 804.112 503.466 C 815.046 503.925, 817.952 503.763, 818.879 502.645 C 820.732 500.413, 819.376 498.620, 810.519 491.602 C 799.346 482.747, 797.884 482.530, 790.702 488.662 M 1109.579 491.565 C 1100.247 498.935, 1098.104 502.058, 1101.486 503.356 C 1102.304 503.670, 1111.549 503.927, 1122.032 503.927 C 1141.868 503.927, 1143.548 503.555, 1141.334 499.653 C 1139.884 497.098, 1122.830 484, 1120.954 484 C 1119.966 484, 1114.848 487.404, 1109.579 491.565 M 654.500 488.255 C 652.850 489.818, 649.700 492.622, 647.500 494.486 L 643.500 497.875 647.218 499.437 C 649.263 500.297, 652.729 501, 654.921 501 C 658.920 501, 664 499.301, 664 497.964 C 664 496.628, 659.111 486.186, 658.303 485.798 C 657.861 485.585, 656.150 486.691, 654.500 488.255 M 740.414 489.795 C 731.387 498.147, 732.104 501.177, 743.508 502.874 C 747.674 503.493, 753.733 504, 756.973 504 C 762.122 504, 762.951 503.729, 763.547 501.852 C 764.110 500.078, 762.859 498.427, 756.364 492.371 C 752.039 488.337, 747.825 485.049, 747 485.064 C 746.175 485.079, 743.211 487.208, 740.414 489.795 M 857.751 491.786 L 849.003 498.500 853.518 499.276 C 856.001 499.703, 864.888 499.928, 873.267 499.776 L 888.500 499.500 882.500 495.595 C 879.200 493.447, 874.811 490.184, 872.747 488.345 C 870.683 486.505, 868.433 485.016, 867.747 485.036 C 867.061 485.055, 862.563 488.093, 857.751 491.786 M 1047.253 488.386 C 1045.189 490.248, 1041.284 493.072, 1038.575 494.662 C 1030.033 499.674, 1030.821 500, 1051.500 500 C 1065.975 500, 1070.079 499.719, 1069.776 498.750 C 1069.324 497.304, 1053.379 485, 1051.957 485 C 1051.434 485, 1049.317 486.524, 1047.253 488.386 M 1181.405 491.136 C 1177.057 494.469, 1173.500 497.715, 1173.500 498.349 C 1173.500 499.164, 1178.703 499.580, 1191.323 499.773 C 1202.111 499.939, 1208.920 499.680, 1208.573 499.118 C 1208.257 498.607, 1205.862 496.951, 1203.250 495.438 C 1200.637 493.925, 1196.432 490.974, 1193.905 488.880 L 1189.311 485.074 1181.405 491.136 M 1433.799 491.750 C 1419.985 502.629, 1421.017 504.258, 1441.134 503.328 C 1456.216 502.631, 1459 501.958, 1459 499.006 C 1459 496.357, 1447.198 485.012, 1444.435 485.005 C 1443.300 485.002, 1438.514 488.038, 1433.799 491.750 M 1580.959 491.589 C 1578.146 497.603, 1578.056 498.157, 1579.526 500.399 C 1581.432 503.308, 1583.481 503.911, 1589.942 503.464 C 1595.642 503.070, 1598.505 501.793, 1600.016 498.970 C 1600.876 497.363, 1600.636 496.561, 1598.749 494.743 C 1595.663 491.771, 1586.832 485.659, 1585.230 485.387 C 1584.531 485.268, 1582.609 488.059, 1580.959 491.589 M 1372.405 488.110 C 1371.357 489.271, 1367.463 492.186, 1363.750 494.590 C 1360.037 496.993, 1357 499.194, 1357 499.480 C 1357 499.766, 1364.650 500, 1374 500 C 1383.350 500, 1391 499.623, 1391 499.162 C 1391 498.403, 1375.645 486, 1374.706 486 C 1374.488 486, 1373.453 486.950, 1372.405 488.110 M 1487.171 493.356 C 1481.363 499.226, 1480.281 500.812, 1481.101 502.250 C 1482.267 504.293, 1486.819 504.492, 1497.403 502.963 C 1504.541 501.931, 1507.122 500.184, 1506.278 496.955 C 1505.718 494.814, 1497.520 486.694, 1495.640 486.418 C 1494.870 486.305, 1491.059 489.427, 1487.171 493.356 M 1531.553 492.116 C 1522.334 502.074, 1525.309 505.118, 1540.500 501.272 C 1547.476 499.506, 1547.499 499.488, 1547.343 496.159 C 1547.239 493.954, 1546.424 492.285, 1544.947 491.250 C 1543.716 490.388, 1541.999 488.854, 1541.132 487.841 C 1540.265 486.829, 1539.029 486, 1538.385 486 C 1537.742 486, 1534.667 488.752, 1531.553 492.116 M 699.500 491.464 C 696.216 494.373, 694.843 496.224, 695.500 496.859 C 697.088 498.393, 714.141 501.259, 715.225 500.175 C 715.816 499.584, 713.987 496.952, 710.334 493.133 L 704.500 487.034 699.500 491.464 M 790.887 492.689 C 786.793 496.594, 785.327 498.591, 786.212 499.057 C 788.030 500.017, 817.474 501.047, 816.390 500.114 C 809.510 494.185, 799.672 487, 798.436 487 C 797.564 487, 794.168 489.560, 790.887 492.689 M 1114.961 491.250 C 1112.091 493.587, 1108.430 496.459, 1106.825 497.630 C 1105.220 498.802, 1103.628 500.039, 1103.287 500.380 C 1102.946 500.721, 1110.866 501, 1120.888 501 L 1139.109 501 1130.430 494 C 1125.656 490.150, 1121.397 487, 1120.965 487 C 1120.533 487, 1117.831 488.913, 1114.961 491.250 M 741.523 492.977 C 738.827 495.714, 736.830 498.163, 737.086 498.419 C 737.910 499.244, 750.348 500.985, 755.471 500.992 L 760.442 501 754 494.500 C 750.457 490.925, 747.303 488, 746.991 488 C 746.680 488, 744.219 490.240, 741.523 492.977 M 1436.500 493.579 C 1432.650 496.642, 1429.097 499.540, 1428.604 500.019 C 1427.723 500.877, 1452.084 500.286, 1454.929 499.380 C 1455.917 499.066, 1454.692 497.238, 1450.963 493.463 C 1447.996 490.458, 1445.103 488.003, 1444.534 488.006 C 1443.965 488.009, 1440.350 490.517, 1436.500 493.579 M 1489.500 495.068 L 1483.500 501.222 1491.879 500.531 C 1496.488 500.151, 1501.190 499.495, 1502.329 499.074 C 1504.267 498.357, 1504.113 498.004, 1499.950 493.610 L 1495.500 488.913 1489.500 495.068 M 1583.033 493.869 C 1580.938 498.180, 1580.917 498.466, 1582.606 499.701 C 1585.728 501.984, 1597 500.492, 1597 497.796 C 1597 496.545, 1592.814 493.199, 1588.490 490.995 L 1585.235 489.336 1583.033 493.869 M 1533.011 494.725 C 1530.723 497.324, 1529.361 499.620, 1529.983 499.828 C 1531.823 500.441, 1543.967 497.862, 1544.681 496.707 C 1545.286 495.728, 1539.472 490, 1537.873 490 C 1537.486 490, 1535.298 492.126, 1533.011 494.725 M 954.037 531.460 C 952.127 533.494, 951.823 534.645, 952.286 538.098 C 952.594 540.395, 953.450 542.878, 954.187 543.615 C 956.616 546.045, 961.244 546.237, 964.750 544.054 C 967.607 542.274, 968 541.504, 968 537.689 C 968 534.445, 967.415 532.799, 965.686 531.174 C 962.443 528.128, 957.043 528.261, 954.037 531.460 M 956.750 533.080 C 954.346 534.480, 954.526 539.261, 957.068 541.562 C 958.956 543.270, 959.371 543.303, 961.818 541.935 C 966.542 539.296, 965.659 531.958, 960.628 532.030 C 959.457 532.047, 957.712 532.519, 956.750 533.080" stroke="none" fill="#10100f" fill-rule="evenodd"/><path d="M 1658.500 380.597 C 1651.900 381.340, 1640.650 382.770, 1633.500 383.775 L 1620.500 385.602 1637 387.788 C 1664.793 391.468, 1680.122 391.600, 1727.500 388.566 C 1781.435 385.112, 1782.372 384.979, 1764 383.385 C 1715.180 379.150, 1679.706 378.212, 1658.500 380.597 M 1603.500 381 C 1603.160 381.550, 1602.009 382, 1600.941 382 C 1599.873 382, 1599 382.637, 1599 383.417 C 1599 384.196, 1598.489 385.004, 1597.864 385.212 C 1595.296 386.068, 1599.359 389.827, 1603.528 390.452 C 1609.127 391.292, 1616 390.128, 1616 388.341 C 1616 387.569, 1616.698 386.669, 1617.552 386.342 C 1618.884 385.831, 1618.819 385.480, 1617.094 383.873 C 1615.988 382.843, 1614.416 382, 1613.601 382 C 1612.785 382, 1611.840 381.550, 1611.500 381 C 1611.160 380.450, 1609.360 380, 1607.500 380 C 1605.640 380, 1603.840 380.450, 1603.500 381 M 1483.500 382.481 C 1472.500 383.212, 1461.063 383.853, 1458.083 383.905 C 1445.575 384.124, 1455.873 385.276, 1487.159 387.158 C 1523.576 389.349, 1558.551 389.132, 1577.500 386.598 C 1583 385.863, 1586.825 385.183, 1586 385.087 C 1585.175 384.991, 1579.100 384.237, 1572.500 383.411 C 1555.754 381.314, 1508.472 380.821, 1483.500 382.481 M 1582.661 454.440 C 1582.336 455.288, 1580.340 456.038, 1577.804 456.265 C 1575.437 456.477, 1588.688 456.729, 1607.250 456.825 C 1635.650 456.972, 1641 456.777, 1641 455.595 C 1641 454.533, 1640.023 454.321, 1637 454.727 C 1634.374 455.079, 1633 454.875, 1633 454.132 C 1633 453.320, 1625.967 453, 1608.107 453 C 1587.365 453, 1583.122 453.240, 1582.661 454.440 M 1598 468 C 1598 469.236, 1622.624 469.236, 1625.500 468 C 1626.744 467.466, 1621.922 467.114, 1612.750 467.070 C 1603.536 467.026, 1598 467.375, 1598 468 M 1573.500 471.997 C 1572.400 472.468, 1356.175 472.882, 1093 472.917 C 829.825 472.952, 612.587 472.985, 610.250 472.990 C 606.670 472.998, 606 473.315, 606 475 C 606 476.230, 606.674 477.008, 607.750 477.021 C 608.712 477.033, 610.773 478.841, 612.328 481.040 C 613.883 483.238, 618.383 487.445, 622.328 490.388 C 626.273 493.332, 630.850 497.193, 632.500 498.970 C 634.150 500.746, 637.381 503.505, 639.680 505.100 L 643.860 508 776.808 508 C 881.974 508, 909.961 508.261, 910.740 509.250 C 911.281 509.938, 912.046 511.850, 912.440 513.500 C 913.494 517.917, 917.547 522.722, 922.308 525.200 C 925.551 526.888, 928.763 527.478, 936.500 527.810 C 942 528.046, 946.773 528.670, 947.107 529.197 C 947.440 529.723, 947.091 531.959, 946.331 534.166 C 945.049 537.887, 945.114 538.477, 947.224 542.300 C 954.022 554.614, 968.959 553.532, 973.474 540.398 C 974.524 537.345, 974.519 536.093, 973.448 533.529 C 972.727 531.805, 972.444 529.910, 972.819 529.317 C 973.202 528.711, 977.888 528.066, 983.531 527.843 C 992.280 527.498, 994.166 527.093, 998.288 524.677 C 1003.630 521.547, 1005.638 518.940, 1007.458 512.776 L 1008.721 508.500 1303.557 508.253 L 1598.392 508.006 1602.330 505.400 C 1604.496 503.967, 1608.120 501.111, 1610.384 499.054 C 1612.648 496.997, 1617.875 493.046, 1622 490.274 C 1626.125 487.502, 1630.850 483.405, 1632.500 481.168 C 1634.150 478.932, 1636.400 476.966, 1637.500 476.801 C 1638.873 476.594, 1639.604 475.590, 1639.831 473.598 L 1640.162 470.696 1632.831 471.359 C 1616.003 472.881, 1595.309 473.309, 1594.592 472.149 C 1593.755 470.795, 1576.596 470.671, 1573.500 471.997 M 949.200 475.200 C 948.540 475.860, 948 477.180, 948 478.133 C 948 479.086, 946.987 480.153, 945.750 480.504 C 944.513 480.856, 939.337 482.721, 934.250 484.649 C 924.679 488.277, 923.477 489.576, 926.250 493.293 C 926.938 494.215, 931.937 496.508, 937.361 498.390 C 944.737 500.949, 947.515 502.401, 948.388 504.155 C 949.476 506.343, 950.210 506.519, 959.379 506.787 C 969.397 507.081, 972.305 506.259, 971.763 503.289 C 971.584 502.304, 973.726 501.119, 978.500 499.563 C 989.971 495.824, 993.672 494.016, 994.764 491.619 C 995.674 489.622, 995.418 489.145, 992.650 487.679 C 990.917 486.762, 985.675 484.700, 981 483.096 C 974.953 481.021, 972.397 479.648, 972.142 478.339 C 971.396 474.499, 970.009 474, 960.078 474 C 953.884 474, 949.968 474.432, 949.200 475.200 M 1273.235 476.750 C 1272.403 479.130, 1270.943 479.940, 1262.387 482.774 C 1250.741 486.631, 1248.553 488.015, 1249.480 490.938 C 1250.286 493.475, 1253.982 495.460, 1264.462 498.981 C 1271.022 501.185, 1272.550 502.096, 1273.017 504.082 C 1273.557 506.382, 1274.012 506.514, 1282.302 506.789 C 1290.739 507.069, 1291.050 507, 1291.946 504.642 C 1292.653 502.782, 1294.485 501.675, 1299.686 499.964 C 1312.941 495.603, 1318.706 491.660, 1315.598 489.081 C 1313.918 487.687, 1300.819 482.298, 1295.873 480.966 C 1293.236 480.256, 1292 479.361, 1292 478.161 C 1292 474.896, 1289.825 474, 1281.898 474 C 1274.395 474, 1274.171 474.071, 1273.235 476.750 M 634.746 476.491 C 625.543 477.828, 623 479.042, 623 482.099 C 623 484.449, 632.440 492, 635.377 492 C 639.005 492, 650.276 479.214, 649.261 476.250 C 648.752 474.763, 646.369 474.802, 634.746 476.491 M 1596.436 476.306 C 1595.210 479.501, 1603.956 490.832, 1607.747 490.958 C 1609.495 491.017, 1617 484.062, 1617 482.384 C 1617 479.323, 1613.291 477.264, 1606.456 476.532 C 1602.714 476.131, 1599.059 475.576, 1598.334 475.298 C 1597.610 475.020, 1596.756 475.474, 1596.436 476.306 M 670.571 477.571 C 668.576 479.567, 668.486 479.038, 672.014 486.029 C 674.007 489.977, 675.635 492, 676.819 492 C 680.484 492, 697 480.079, 697 477.433 C 697 475.227, 672.789 475.354, 670.571 477.571 M 1548 477.291 C 1548 478.977, 1550.915 481.662, 1557.842 486.354 C 1564.111 490.600, 1565.682 490.250, 1568.511 483.975 C 1571.466 477.422, 1570.310 476.557, 1558.144 476.215 C 1550.116 475.989, 1548 476.214, 1548 477.291 M 724.500 478.139 C 717.801 478.986, 715 480.551, 715 483.445 C 715 484.030, 716.688 486.622, 718.750 489.206 C 724.019 495.807, 725.772 495.573, 734.198 487.147 C 744.280 477.065, 742.926 475.807, 724.500 478.139 M 769 478.028 C 764.325 478.431, 759.712 479.088, 758.750 479.488 C 755.329 480.908, 756.724 484.914, 762.845 491.247 C 770.187 498.843, 771.026 498.710, 782.124 488.178 C 794.199 476.718, 793.194 475.941, 769 478.028 M 1455.015 478.482 C 1453.777 479.974, 1454.469 480.960, 1461.363 487.527 C 1465.619 491.581, 1470.029 495.192, 1471.164 495.552 C 1472.767 496.061, 1474.439 495.012, 1478.655 490.853 C 1483.114 486.456, 1484.031 484.976, 1483.791 482.566 C 1483.430 478.926, 1481.967 478.478, 1467.315 477.521 C 1457.776 476.897, 1456.230 477.018, 1455.015 478.482 M 1504.667 477.667 C 1503.160 479.173, 1504.301 481.063, 1510.151 486.752 C 1513.915 490.413, 1516.922 492.563, 1517.901 492.292 C 1520.255 491.642, 1525 485.034, 1525 482.406 C 1525 479.845, 1524.227 479.508, 1515 478.045 C 1507.351 476.833, 1505.566 476.768, 1504.667 477.667 M 816.009 478.730 C 812.353 479.183, 811.041 480.357, 811.015 483.200 C 811.001 484.844, 825.920 498.110, 829.037 499.224 C 831.365 500.057, 834.668 498.207, 845.348 490.091 C 852.898 484.354, 855.030 482.211, 854.799 480.591 C 854.509 478.565, 853.956 478.497, 837 478.399 C 827.375 478.343, 817.929 478.493, 816.009 478.730 M 1065.205 479.253 C 1063.702 481.064, 1065.082 482.549, 1076.417 491.324 C 1083.495 496.802, 1087.156 499, 1089.202 499 C 1091.259 499, 1094.292 497.162, 1099.929 492.498 C 1104.251 488.922, 1108.053 485.304, 1108.377 484.459 C 1109.342 481.944, 1106.893 479.245, 1103.073 478.613 C 1095.898 477.426, 1066.306 477.926, 1065.205 479.253 M 1138.199 478.986 C 1136.384 479.416, 1134.642 480.024, 1134.329 480.338 C 1133.022 481.645, 1135.232 486.024, 1138.252 488.113 C 1140.039 489.349, 1143.618 492.303, 1146.207 494.680 C 1152.833 500.761, 1154.495 500.514, 1165.972 491.740 C 1174.807 484.987, 1178.566 480.725, 1177.380 478.806 C 1176.748 477.783, 1142.616 477.940, 1138.199 478.986 M 1389 479.269 C 1389 481.558, 1391.661 484.198, 1401.241 491.415 C 1410.194 498.160, 1413.657 499.323, 1416.082 496.401 C 1416.812 495.522, 1419.988 492.818, 1423.140 490.392 C 1429.534 485.472, 1431.056 482.628, 1428.605 480.177 C 1426.253 477.824, 1389 476.970, 1389 479.269 M 1574.469 482.049 C 1570.608 488.165, 1569.865 490.643, 1571.487 491.989 C 1573.235 493.440, 1576.023 490.836, 1579.028 484.945 C 1582.789 477.573, 1578.867 475.082, 1574.469 482.049 M 888.500 479.724 C 885.233 480.527, 883.977 482.087, 884.458 484.743 C 885.015 487.811, 883.917 486.803, 895.099 494.515 C 904.621 501.084, 909.099 502.501, 911.800 499.800 C 913.313 498.287, 913.382 486.394, 911.902 482.149 L 910.804 479 900.652 479.116 C 895.068 479.180, 889.600 479.453, 888.500 479.724 M 1008.750 480.080 C 1007.294 480.928, 1007 482.571, 1007 489.850 C 1007 495.322, 1007.450 499.050, 1008.200 499.800 C 1010.060 501.660, 1015.178 501.114, 1018.581 498.692 C 1020.275 497.487, 1024.184 494.817, 1027.267 492.760 C 1032.950 488.968, 1036 485.639, 1036 483.226 C 1036 480.703, 1029.414 478.999, 1019.782 479.030 C 1014.677 479.047, 1009.712 479.519, 1008.750 480.080 M 1209.596 480.306 C 1205.956 482.968, 1207.964 486.128, 1217.500 492.745 C 1233.296 503.706, 1234 503.605, 1234 490.368 C 1234 481.179, 1233.938 480.927, 1231.435 479.975 C 1227.571 478.506, 1211.729 478.746, 1209.596 480.306 M 1333.250 480.111 C 1332.431 480.955, 1332 484.620, 1332 490.731 C 1332 503.632, 1332.411 503.681, 1348 492.652 C 1355.756 487.164, 1357.111 484.902, 1354.656 481.544 C 1353.467 479.919, 1351.712 479.539, 1343.868 479.213 C 1337.103 478.931, 1334.153 479.180, 1333.250 480.111 M 1588 480.596 C 1588 482.825, 1591.851 488, 1593.509 488 C 1595.999 488, 1596.172 486.014, 1593.989 482.482 C 1591.759 478.874, 1588 477.690, 1588 480.596 M 652.334 485.327 C 650.042 487.622, 646.577 490.850, 644.633 492.500 C 639.478 496.875, 639.555 499.023, 644.962 501.750 C 653.661 506.137, 667 503.899, 667 498.052 C 667 495.714, 662.285 485.013, 660.258 482.750 C 658.046 480.281, 657.049 480.605, 652.334 485.327 M 855.849 489.303 C 846.425 496.671, 845.212 498.266, 846.963 501 C 848.426 503.283, 888.328 503.815, 890.562 501.581 C 892.924 499.219, 890.925 496.639, 883.164 492.028 C 879.423 489.806, 875.071 486.640, 873.494 484.993 C 869.032 480.336, 866.542 480.945, 855.849 489.303 M 1046.437 485.086 C 1044.822 486.783, 1040.800 489.754, 1037.500 491.687 C 1029.724 496.244, 1027.341 498.732, 1028.696 500.882 C 1030.195 503.260, 1070.302 503.841, 1072.624 501.519 C 1075.238 498.905, 1073.784 496.826, 1064.078 489.299 C 1053.296 480.939, 1050.924 480.372, 1046.437 485.086 M 1181 487.142 C 1168.455 496.778, 1167.140 498.735, 1171.359 501.500 C 1174.925 503.836, 1210.797 503.273, 1212.320 500.856 C 1213.618 498.796, 1212.370 497.470, 1204.414 492.463 C 1201.161 490.415, 1197.112 487.432, 1195.415 485.834 C 1190.561 481.261, 1188.402 481.457, 1181 487.142 M 796.823 483.888 C 795.901 484.225, 792.195 487.110, 788.588 490.301 C 781.314 496.736, 780.325 499.916, 784.945 502.021 C 788.653 503.710, 816.029 504.590, 818.797 503.109 C 820.844 502.013, 820.893 501.766, 819.481 499.611 C 817.866 497.147, 802.528 484.704, 800 483.808 C 799.175 483.516, 797.745 483.552, 796.823 483.888 M 1371.872 484.662 C 1371.118 485.576, 1367.350 488.329, 1363.500 490.780 C 1353.387 497.217, 1352.914 497.717, 1354.226 500.596 L 1355.321 503 1374.125 503 C 1391.077 503, 1393.023 502.826, 1393.875 501.234 C 1395.370 498.440, 1393.228 495.665, 1384.493 489.079 C 1376.011 482.684, 1374.068 482.003, 1371.872 484.662 M 697.012 489.150 C 687.552 497.054, 689.097 499.717, 704.802 502.578 C 715.071 504.449, 719 503.749, 719 500.047 C 719 497.236, 707.801 484.486, 705.158 484.287 C 703.896 484.192, 700.566 486.180, 697.012 489.150 M 1110.972 490.095 C 1106.862 493.447, 1102.713 496.613, 1101.750 497.130 C 1100.688 497.701, 1100 499.236, 1100 501.035 L 1100 504 1120.250 503.985 C 1131.388 503.976, 1140.950 503.639, 1141.500 503.235 C 1143.749 501.582, 1142.595 499.838, 1135.227 493.748 C 1125.216 485.473, 1122.990 484, 1120.499 484 C 1119.369 484, 1115.082 486.743, 1110.972 490.095 M 739.145 490.440 C 733.145 496.784, 732.443 500.133, 736.750 501.859 C 739.729 503.053, 760.755 505.028, 762.673 504.294 C 765.927 503.049, 764.730 500.493, 757.336 492.895 C 747.708 483.001, 746.353 482.818, 739.145 490.440 M 1433.520 491.580 C 1419.947 502.518, 1421.204 504.578, 1440.938 503.736 C 1455.284 503.125, 1459 502.111, 1459 498.809 C 1459 495.621, 1447.387 484.975, 1444.018 485.074 C 1442.490 485.119, 1438.362 487.677, 1433.520 491.580 M 1583.324 486.250 C 1581.607 488.954, 1578 497.272, 1578 498.527 C 1578 499.257, 1579.186 500.788, 1580.635 501.927 C 1586.193 506.299, 1599.839 503.555, 1600.764 497.879 C 1601.056 496.089, 1593.781 489, 1591.652 489 C 1590.914 489, 1589.495 488.100, 1588.500 487 C 1586.433 484.716, 1584.478 484.433, 1583.324 486.250 M 1486.993 492.870 C 1479.765 499.971, 1479.422 500.538, 1480.927 502.917 C 1481.941 504.518, 1484.213 504.621, 1495.244 503.569 C 1503.908 502.743, 1507.675 500.702, 1506.627 497.401 C 1505.732 494.579, 1497.390 486, 1495.541 486 C 1494.686 486, 1490.840 489.091, 1486.993 492.870 M 1531.087 492.087 C 1525.921 498.269, 1524.673 502.277, 1527.568 503.388 C 1529.661 504.191, 1543.912 501.231, 1546.750 499.403 C 1547.987 498.606, 1549 497.240, 1549 496.369 C 1549 494.342, 1540.036 486.025, 1537.837 486.011 C 1536.922 486.005, 1533.884 488.739, 1531.087 492.087 M 957.500 528.955 C 954.152 530.309, 952.106 533.358, 951.834 537.397 C 951.345 544.654, 959.881 548.636, 965.456 543.750 C 969.199 540.469, 969.483 535.534, 966.132 531.962 C 963.118 528.749, 960.372 527.792, 957.500 528.955" stroke="none" fill="#bab7b5" fill-rule="evenodd"/></svg>