<svg xmlns="http://www.w3.org/2000/svg" width="1920" height="1080" viewBox="0 0 1920 1080" version="1.1"><path d="M 920 512.500 L 920 518 923.500 518 L 927 518 927 512.500 L 927 507 923.500 507 L 920 507 920 512.500 M 992 512.500 L 992 518 996 518 L 1000 518 1000 512.500 L 1000 507 996 507 L 992 507 992 512.500 M 953.154 526.638 C 946.335 530.112, 943.103 539.431, 946.464 545.931 C 953.658 559.842, 974.347 555.893, 974.328 540.612 C 974.314 529.480, 962.666 521.793, 953.154 526.638 M 955.357 536.577 C 951.830 541.962, 958.296 548.757, 962.944 544.551 C 965.855 541.916, 966.388 539.242, 964.560 536.451 C 962.324 533.038, 957.634 533.103, 955.357 536.577 M 920.200 567.750 C 920.497 573.435, 920.537 573.504, 923.750 573.813 L 927 574.127 927 568.063 L 927 562 923.450 562 L 919.900 562 920.200 567.750 M 992 568.060 L 992 574.121 995.750 573.810 L 999.500 573.500 999.800 567.750 L 1000.100 562 996.050 562 L 992 562 992 568.060" stroke="none" fill="#b1afaf" fill-rule="evenodd"/><path d="M 925 497.940 L 925 502.879 921.250 503.190 L 917.500 503.500 917.204 511.480 C 916.882 520.145, 917.850 522, 922.691 522 L 925 522 925 540.440 L 925 558.879 921.250 559.190 L 917.500 559.500 917.211 568.250 L 916.922 577 920.961 577 L 925 577 925 667.500 L 925 758 921 758 L 917 758 917 749.107 C 917 741.920, 916.697 740.098, 915.418 739.607 C 912.624 738.535, 902.440 738.960, 901.200 740.200 C 900.540 740.860, 900 743.512, 900 746.093 C 900 749.342, 899.538 750.963, 898.500 751.362 C 897.630 751.695, 897 753.191, 897 754.923 L 897 757.909 890.336 758.204 L 883.672 758.500 880.336 768.462 C 878.501 773.941, 877 779.903, 877 781.712 L 877 785 887 785 L 897 785 897 824 L 897 863 891.183 863 L 885.366 863 882.168 877.750 C 877.655 898.573, 877.178 897, 888 897 L 897 897 897 934.989 L 897 972.977 856.750 973.239 L 816.500 973.500 807.745 1000 C 802.080 1017.146, 799.080 1027.735, 799.245 1030 L 799.500 1033.500 847.831 1033.760 C 889.079 1033.981, 896.381 1034.238, 897.653 1035.510 C 899.723 1037.580, 911.280 1037.573, 913 1035.500 C 914.848 1033.273, 1004.494 1033.303, 1007.441 1035.532 C 1010.071 1037.521, 1020.351 1037.506, 1022.347 1035.510 C 1023.619 1034.238, 1030.921 1033.981, 1072.169 1033.760 L 1120.500 1033.500 1120.755 1030 C 1120.920 1027.735, 1117.920 1017.146, 1112.255 1000 L 1103.500 973.500 1063.250 973.239 L 1023 972.977 1023 934.989 L 1023 897 1032 897 C 1042.822 897, 1042.345 898.573, 1037.832 877.750 L 1034.634 863 1028.817 863 L 1023 863 1023 824 L 1023 785 1033 785 L 1043 785 1043 781.712 C 1043 779.903, 1041.499 773.941, 1039.664 768.462 L 1036.328 758.500 1029.664 758.204 L 1023 757.909 1023 754.454 C 1023 752.050, 1022.544 751, 1021.500 751 C 1020.375 751, 1020 749.800, 1020 746.200 C 1020 743.560, 1019.460 740.860, 1018.800 740.200 C 1017.234 738.634, 1005.766 738.634, 1004.200 740.200 C 1003.459 740.941, 1003 744.578, 1003 749.700 L 1003 758 999 758 L 995 758 995 667.500 L 995 577 999.039 577 L 1003.078 577 1002.789 568.250 L 1002.500 559.500 998.750 559.190 L 995 558.879 995 540.440 C 995 522.471, 995.053 522, 997.066 522 C 1002.158 522, 1003 520.505, 1003 511.465 L 1003 503 999 503 L 995 503 995 498 L 995 493 960 493 L 925 493 925 497.940 M 928.513 497.236 C 928.273 497.931, 927.947 500.075, 927.789 502 C 927.519 505.270, 927.251 505.521, 923.704 505.813 L 919.908 506.126 920.204 512.313 L 920.500 518.500 924 519 L 927.500 519.500 927.784 538.500 C 927.940 548.950, 927.819 558.513, 927.515 559.750 C 927.073 561.547, 926.260 562, 923.481 562 L 920 562 920 567.940 L 920 573.879 923.750 574.190 L 927.500 574.500 927.500 667.500 L 927.500 760.500 922.566 760.812 C 919.853 760.984, 916.545 760.852, 915.217 760.518 C 912.858 759.926, 912.809 759.705, 913.150 751.206 L 913.500 742.500 908.500 742.500 L 903.500 742.500 903.500 747.325 C 903.500 750.668, 902.989 752.524, 901.836 753.372 C 900.921 754.044, 900.021 755.923, 899.836 757.547 C 899.509 760.424, 899.342 760.508, 893.335 760.796 C 889.944 760.958, 886.741 761.633, 886.218 762.296 C 885.134 763.668, 880 778.879, 880 780.717 C 880 781.562, 882.945 782.014, 889.750 782.214 L 899.500 782.500 899.500 824 L 899.500 865.500 893.815 865.798 L 888.131 866.096 885.562 877.298 C 881.521 894.923, 881.058 893.449, 890.741 893.790 C 898.297 894.056, 899.027 894.264, 899.519 896.290 C 899.815 897.506, 899.931 915.825, 899.778 937 L 899.500 975.500 859.154 976 L 818.807 976.500 810.421 1002 C 805.809 1016.025, 802.027 1028.063, 802.018 1028.750 C 802.004 1029.733, 812.309 1030, 850.259 1030 C 897.436 1030, 898.547 1030.045, 899.768 1032 C 900.715 1033.517, 902.100 1034, 905.500 1034 C 908.900 1034, 910.285 1033.517, 911.232 1032 C 912.453 1030.046, 913.564 1030, 960 1030 C 1006.436 1030, 1007.547 1030.046, 1008.768 1032 C 1009.715 1033.517, 1011.100 1034, 1014.500 1034 C 1017.900 1034, 1019.285 1033.517, 1020.232 1032 C 1021.453 1030.045, 1022.564 1030, 1069.741 1030 C 1107.688 1030, 1117.997 1029.733, 1117.988 1028.750 C 1117.981 1028.063, 1114.185 1016.025, 1109.553 1002 L 1101.131 976.500 1060.816 976 L 1020.500 975.500 1020.500 935 L 1020.500 894.500 1029 894 C 1038.971 893.413, 1038.472 894.955, 1034.406 877.297 L 1031.826 866.095 1026.163 865.797 L 1020.500 865.500 1020.500 824 L 1020.500 782.500 1030.250 782.214 C 1037.055 782.014, 1040 781.562, 1040 780.717 C 1040 778.879, 1034.866 763.668, 1033.782 762.296 C 1033.259 761.633, 1030.056 760.958, 1026.665 760.796 C 1020.651 760.507, 1020.492 760.427, 1020.163 757.533 C 1019.977 755.901, 1018.965 753.963, 1017.913 753.226 C 1016.463 752.211, 1016 750.677, 1016 746.889 L 1016 741.890 1011.250 742.195 L 1006.500 742.500 1006.850 751.206 C 1007.191 759.705, 1007.142 759.926, 1004.783 760.518 C 1003.455 760.852, 1000.147 760.984, 997.434 760.812 L 992.500 760.500 992.500 667.500 L 992.500 574.500 996.250 574.190 L 1000 573.879 1000 567.940 L 1000 562 996.519 562 C 993.740 562, 992.927 561.547, 992.485 559.750 C 992.181 558.513, 992.060 548.950, 992.216 538.500 L 992.500 519.500 996 519 L 999.500 518.500 999.796 512.313 L 1000.092 506.126 996.296 505.813 C 992.597 505.508, 992.487 505.385, 992 501 L 991.500 496.500 960.224 496.236 C 935.722 496.029, 928.854 496.245, 928.513 497.236 M 956.174 536.314 C 953.673 538.977, 953.449 540.864, 955.328 543.434 C 958.441 547.691, 966.910 543.643, 965.422 538.611 C 964 533.803, 959.568 532.702, 956.174 536.314 M 914.200 783.200 C 913.306 784.094, 913 794.665, 913 824.593 C 913 860.321, 913.176 864.853, 914.582 865.393 C 916.648 866.186, 1003.352 866.186, 1005.418 865.393 C 1006.824 864.853, 1007 860.321, 1007 824.593 C 1007 794.665, 1006.694 784.094, 1005.800 783.200 C 1004.073 781.473, 915.927 781.473, 914.200 783.200 M 917 824 L 917 863 960 863 L 1003 863 1003 824 L 1003 785 960 785 L 917 785 917 824 M 914.200 895.200 C 913.307 896.093, 913 906.443, 913 935.593 C 913 970.409, 913.177 974.854, 914.582 975.393 C 916.648 976.186, 1003.352 976.186, 1005.418 975.393 C 1006.823 974.854, 1007 970.409, 1007 935.593 C 1007 906.443, 1006.693 896.093, 1005.800 895.200 C 1004.073 893.473, 915.927 893.473, 914.200 895.200 M 917 935 L 917 973 960 973 L 1003 973 1003 935 L 1003 897 960 897 L 917 897 917 935" stroke="none" fill="#0a0604" fill-rule="evenodd"/><path d="M 928.513 497.236 C 928.273 497.931, 927.947 500.075, 927.789 502 C 927.521 505.249, 927.214 505.544, 923.500 506.108 L 919.500 506.716 923.250 506.858 L 927 507 927 512.500 L 927 518 923.750 518.132 L 920.500 518.263 924 518.882 L 927.500 519.500 927.500 640 L 927.500 760.500 922.566 760.812 C 919.853 760.984, 916.545 760.852, 915.217 760.518 C 912.858 759.926, 912.809 759.705, 913.150 751.206 L 913.500 742.500 908.500 742.500 L 903.500 742.500 903.500 747.325 C 903.500 750.668, 902.989 752.524, 901.836 753.372 C 900.921 754.044, 900.021 755.923, 899.836 757.547 C 899.509 760.424, 899.342 760.508, 893.335 760.796 C 889.944 760.958, 886.741 761.633, 886.218 762.296 C 885.134 763.668, 880 778.879, 880 780.717 C 880 781.562, 882.945 782.014, 889.750 782.214 L 899.500 782.500 899.500 824 L 899.500 865.500 893.815 865.798 L 888.131 866.096 885.562 877.298 C 881.521 894.923, 881.058 893.449, 890.741 893.790 C 898.297 894.056, 899.027 894.264, 899.519 896.290 C 899.815 897.506, 899.931 915.825, 899.778 937 L 899.500 975.500 859.154 976 L 818.807 976.500 810.421 1002 C 805.809 1016.025, 802.027 1028.063, 802.018 1028.750 C 802.004 1029.733, 812.309 1030, 850.259 1030 C 897.436 1030, 898.547 1030.045, 899.768 1032 C 900.715 1033.517, 902.100 1034, 905.500 1034 C 908.900 1034, 910.285 1033.517, 911.232 1032 C 912.453 1030.046, 913.564 1030, 960 1030 C 1006.436 1030, 1007.547 1030.046, 1008.768 1032 C 1009.715 1033.517, 1011.100 1034, 1014.500 1034 C 1017.900 1034, 1019.285 1033.517, 1020.232 1032 C 1021.453 1030.045, 1022.564 1030, 1069.741 1030 C 1107.688 1030, 1117.997 1029.733, 1117.988 1028.750 C 1117.981 1028.063, 1114.185 1016.025, 1109.553 1002 L 1101.131 976.500 1060.816 976 L 1020.500 975.500 1020.500 935 L 1020.500 894.500 1029 894 C 1038.971 893.413, 1038.472 894.955, 1034.406 877.297 L 1031.826 866.095 1026.163 865.797 L 1020.500 865.500 1020.500 824 L 1020.500 782.500 1030.250 782.214 C 1037.055 782.014, 1040 781.562, 1040 780.717 C 1040 778.879, 1034.866 763.668, 1033.782 762.296 C 1033.259 761.633, 1030.056 760.958, 1026.665 760.796 C 1020.651 760.507, 1020.492 760.427, 1020.163 757.533 C 1019.977 755.901, 1018.965 753.963, 1017.913 753.226 C 1016.463 752.211, 1016 750.677, 1016 746.889 L 1016 741.890 1011.250 742.195 L 1006.500 742.500 1006.850 751.206 C 1007.191 759.705, 1007.142 759.926, 1004.783 760.518 C 1003.455 760.852, 1000.147 760.984, 997.434 760.812 L 992.500 760.500 992.500 640 L 992.500 519.500 996 518.882 L 999.500 518.263 995.750 518.132 L 992 518 992 512.500 L 992 507 996.250 506.858 L 1000.500 506.716 996.500 506.108 C 992.615 505.517, 992.486 505.371, 992 501 L 991.500 496.500 960.224 496.236 C 935.722 496.029, 928.854 496.245, 928.513 497.236 M 953.154 526.638 C 946.335 530.112, 943.103 539.431, 946.464 545.931 C 953.658 559.842, 974.347 555.893, 974.328 540.612 C 974.314 529.480, 962.666 521.793, 953.154 526.638 M 914.200 783.200 C 913.306 784.094, 913 794.665, 913 824.593 C 913 860.321, 913.176 864.853, 914.582 865.393 C 916.648 866.186, 1003.352 866.186, 1005.418 865.393 C 1006.824 864.853, 1007 860.321, 1007 824.593 C 1007 794.665, 1006.694 784.094, 1005.800 783.200 C 1004.073 781.473, 915.927 781.473, 914.200 783.200 M 914.200 895.200 C 913.307 896.093, 913 906.443, 913 935.593 C 913 970.409, 913.177 974.854, 914.582 975.393 C 916.648 976.186, 1003.352 976.186, 1005.418 975.393 C 1006.823 974.854, 1007 970.409, 1007 935.593 C 1007 906.443, 1006.693 896.093, 1005.800 895.200 C 1004.073 893.473, 915.927 893.473, 914.200 895.200" stroke="none" fill="#c27a53" fill-rule="evenodd"/></svg>